<svg xmlns="http://www.w3.org/2000/svg" viewBox="0 0 32 32"><defs><linearGradient id="a" x1="99.14%" x2="33.894%" y1="113.389%" y2="41.49%"><stop offset="0%" stop-color="#0052cc"/><stop offset="92%" stop-color="#2684ff"/></linearGradient><linearGradient id="b" x1=".136%" x2="65.713%" y1="-12.459%" y2="58.643%"><stop offset="0%" stop-color="#0052cc"/><stop offset="92%" stop-color="#2684ff"/></linearGradient></defs><path fill="url(#a)" d="M3.305 23.718c-.236.398-.495.84-.743 1.259a.916.916 0 0 0 .301 1.261l5.919 3.566a.92.92 0 0 0 1.263-.299c.213-.366.473-.82.754-1.307 2.064-3.534 4.129-3.123 8.159-1.124l5.762 2.85a.918.918 0 0 0 1.226-.418l2.86-6.291a.92.92 0 0 0-.404-1.217c-1.488-.731-4.452-2.182-5.998-2.946-6.593-3.268-12.181-3.446-19.1 4.666z"/><path fill="url(#b)" d="M28.683 8.192c.235-.398.494-.84.742-1.26a.916.916 0 0 0-.3-1.26l-5.92-3.567a.92.92 0 0 0-1.263.3c-.212.365-.472.82-.753 1.306-2.064 3.534-4.13 3.123-8.16 1.124l-5.761-2.85a.917.917 0 0 0-1.226.417l-2.86 6.292a.92.92 0 0 0 .404 1.217c1.488.73 4.452 2.181 5.997 2.945 6.593 3.268 12.182 3.446 19.1-4.664z"/></svg>
