<svg xmlns="http://www.w3.org/2000/svg" viewBox="0 0 32 32"><defs><linearGradient id="a" x1="98.031%" x2="58.829%" y1=".161%" y2="40.765%"><stop offset="18%" stop-color="#0052cc" stop-opacity="0"/><stop offset="100%" stop-color="#0052cc"/></linearGradient><linearGradient id="b" x1="100.165%" x2="55.654%" y1=".952%" y2="44.67%"><stop offset="18%" stop-color="#0052cc" stop-opacity="0"/><stop offset="100%" stop-color="#0052cc"/></linearGradient></defs><path fill="#2684ff" d="M27.365 15.21 16.729 5.013 16 4.336 5.635 14.32c-.553.531-.553 1.392 0 1.923L4 12l11.619 11.167.381.366L20 20l2.875-2.762 4.49-4.105c.552-.53.552-1.392 0-1.923z"/><path fill="url(#a)" d="M16 15.372a5.665 5.665 0 0 1-.016-8.013L5.603 17.208l3.722 3.761L16 15.372z" transform="translate(-.004 -.002)"/><path fill="url(#b)" d="m20.836 11.745-4.821 5.067a5.665 5.665 0 0 1 .014 8.011l10.403-9.97z" transform="translate(-.004 -.002)"/></svg>
